<mxfile host="www.draw.io" modified="2019-12-12T05:25:54.592Z" agent="Mozilla/5.0 (Windows NT 10.0; Win64; x64) AppleWebKit/537.36 (KHTML, like Gecko) Chrome/74.0.3729.108 Safari/537.36" etag="inNA1EL5myqzWc2WqTZJ" version="12.3.9" type="github" pages="1">
  <diagram id="iU_TIAPN-Pph5pVSYNDZ" name="第 1 页">
    <mxGraphModel dx="1550" dy="787" grid="1" gridSize="10" guides="1" tooltips="1" connect="1" arrows="1" fold="1" page="1" pageScale="1" pageWidth="1169" pageHeight="1654" math="0" shadow="0">
      <root>
        <mxCell id="0"/>
        <mxCell id="1" parent="0"/>
        <mxCell id="6lCbFaMOvaHUvnWq1Ras-11" value="用户表" style="swimlane;fontStyle=0;childLayout=stackLayout;horizontal=1;startSize=22;fillColor=none;horizontalStack=0;resizeParent=1;resizeParentMax=0;resizeLast=0;collapsible=1;marginBottom=0;swimlaneFillColor=#ffffff;align=center;fontSize=14;" parent="1" vertex="1">
          <mxGeometry x="120" y="240" width="120" height="160" as="geometry"/>
        </mxCell>
        <mxCell id="6lCbFaMOvaHUvnWq1Ras-12" value="用户id" style="text;strokeColor=none;fillColor=none;spacingLeft=4;spacingRight=4;overflow=hidden;rotatable=0;points=[[0,0.5],[1,0.5]];portConstraint=eastwest;fontSize=12;" parent="6lCbFaMOvaHUvnWq1Ras-11" vertex="1">
          <mxGeometry y="22" width="120" height="26" as="geometry"/>
        </mxCell>
        <mxCell id="6lCbFaMOvaHUvnWq1Ras-13" value="用户姓名" style="text;strokeColor=none;fillColor=none;spacingLeft=4;spacingRight=4;overflow=hidden;rotatable=0;points=[[0,0.5],[1,0.5]];portConstraint=eastwest;fontSize=12;" parent="6lCbFaMOvaHUvnWq1Ras-11" vertex="1">
          <mxGeometry y="48" width="120" height="26" as="geometry"/>
        </mxCell>
        <mxCell id="6lCbFaMOvaHUvnWq1Ras-14" value="用户手机号&#xa;&#xa;用户状态" style="text;strokeColor=none;fillColor=none;spacingLeft=4;spacingRight=4;overflow=hidden;rotatable=0;points=[[0,0.5],[1,0.5]];portConstraint=eastwest;fontSize=12;" parent="6lCbFaMOvaHUvnWq1Ras-11" vertex="1">
          <mxGeometry y="74" width="120" height="86" as="geometry"/>
        </mxCell>
        <mxCell id="6lCbFaMOvaHUvnWq1Ras-15" value="订单主表" style="swimlane;fontStyle=0;childLayout=stackLayout;horizontal=1;startSize=22;fillColor=none;horizontalStack=0;resizeParent=1;resizeParentMax=0;resizeLast=0;collapsible=1;marginBottom=0;swimlaneFillColor=#ffffff;align=center;fontSize=14;" parent="1" vertex="1">
          <mxGeometry x="320" y="240" width="120" height="160" as="geometry"/>
        </mxCell>
        <mxCell id="6lCbFaMOvaHUvnWq1Ras-16" value="订单id" style="text;strokeColor=none;fillColor=none;spacingLeft=4;spacingRight=4;overflow=hidden;rotatable=0;points=[[0,0.5],[1,0.5]];portConstraint=eastwest;fontSize=12;" parent="6lCbFaMOvaHUvnWq1Ras-15" vertex="1">
          <mxGeometry y="22" width="120" height="26" as="geometry"/>
        </mxCell>
        <mxCell id="6lCbFaMOvaHUvnWq1Ras-17" value="用户id" style="text;strokeColor=none;fillColor=none;spacingLeft=4;spacingRight=4;overflow=hidden;rotatable=0;points=[[0,0.5],[1,0.5]];portConstraint=eastwest;fontSize=12;" parent="6lCbFaMOvaHUvnWq1Ras-15" vertex="1">
          <mxGeometry y="48" width="120" height="26" as="geometry"/>
        </mxCell>
        <mxCell id="6lCbFaMOvaHUvnWq1Ras-18" value="订单状态&#xa;&#xa;订单金额" style="text;strokeColor=none;fillColor=none;spacingLeft=4;spacingRight=4;overflow=hidden;rotatable=0;points=[[0,0.5],[1,0.5]];portConstraint=eastwest;fontSize=12;" parent="6lCbFaMOvaHUvnWq1Ras-15" vertex="1">
          <mxGeometry y="74" width="120" height="86" as="geometry"/>
        </mxCell>
        <mxCell id="6lCbFaMOvaHUvnWq1Ras-19" value="订单详情表" style="swimlane;fontStyle=0;childLayout=stackLayout;horizontal=1;startSize=22;fillColor=none;horizontalStack=0;resizeParent=1;resizeParentMax=0;resizeLast=0;collapsible=1;marginBottom=0;swimlaneFillColor=#ffffff;align=center;fontSize=14;" parent="1" vertex="1">
          <mxGeometry x="520" y="240" width="120" height="160" as="geometry"/>
        </mxCell>
        <mxCell id="6lCbFaMOvaHUvnWq1Ras-20" value="订单详情id" style="text;strokeColor=none;fillColor=none;spacingLeft=4;spacingRight=4;overflow=hidden;rotatable=0;points=[[0,0.5],[1,0.5]];portConstraint=eastwest;fontSize=12;" parent="6lCbFaMOvaHUvnWq1Ras-19" vertex="1">
          <mxGeometry y="22" width="120" height="26" as="geometry"/>
        </mxCell>
        <mxCell id="6lCbFaMOvaHUvnWq1Ras-22" value="订单id&#xa;&#xa;商品名称&#xa;&#xa;商品描述&#xa;&#xa;商品数量/单价等" style="text;strokeColor=none;fillColor=none;spacingLeft=4;spacingRight=4;overflow=hidden;rotatable=0;points=[[0,0.5],[1,0.5]];portConstraint=eastwest;fontSize=12;" parent="6lCbFaMOvaHUvnWq1Ras-19" vertex="1">
          <mxGeometry y="48" width="120" height="112" as="geometry"/>
        </mxCell>
        <mxCell id="6lCbFaMOvaHUvnWq1Ras-23" value="" style="endArrow=classic;html=1;entryX=1;entryY=0.5;entryDx=0;entryDy=0;exitX=0;exitY=0.5;exitDx=0;exitDy=0;" parent="1" source="6lCbFaMOvaHUvnWq1Ras-17" target="6lCbFaMOvaHUvnWq1Ras-12" edge="1">
          <mxGeometry width="50" height="50" relative="1" as="geometry">
            <mxPoint x="330" y="550" as="sourcePoint"/>
            <mxPoint x="380" y="500" as="targetPoint"/>
          </mxGeometry>
        </mxCell>
        <mxCell id="6lCbFaMOvaHUvnWq1Ras-25" value="" style="endArrow=classic;html=1;exitX=0;exitY=0.107;exitDx=0;exitDy=0;exitPerimeter=0;entryX=1;entryY=0.5;entryDx=0;entryDy=0;" parent="1" source="6lCbFaMOvaHUvnWq1Ras-22" target="6lCbFaMOvaHUvnWq1Ras-16" edge="1">
          <mxGeometry width="50" height="50" relative="1" as="geometry">
            <mxPoint x="520" y="530" as="sourcePoint"/>
            <mxPoint x="570" y="480" as="targetPoint"/>
          </mxGeometry>
        </mxCell>
        <mxCell id="6lCbFaMOvaHUvnWq1Ras-26" value="app端" style="rounded=0;whiteSpace=wrap;html=1;" parent="1" vertex="1">
          <mxGeometry x="120" y="440" width="120" height="40" as="geometry"/>
        </mxCell>
        <mxCell id="6lCbFaMOvaHUvnWq1Ras-27" value="商户服务端" style="rounded=0;whiteSpace=wrap;html=1;" parent="1" vertex="1">
          <mxGeometry x="320" y="440" width="120" height="40" as="geometry"/>
        </mxCell>
        <mxCell id="6lCbFaMOvaHUvnWq1Ras-28" value="第三方支付平台" style="rounded=0;whiteSpace=wrap;html=1;" parent="1" vertex="1">
          <mxGeometry x="520" y="440" width="120" height="40" as="geometry"/>
        </mxCell>
        <mxCell id="6lCbFaMOvaHUvnWq1Ras-30" value="点击&lt;br&gt;下单" style="ellipse;whiteSpace=wrap;html=1;aspect=fixed;" parent="1" vertex="1">
          <mxGeometry x="160" y="522" width="40" height="40" as="geometry"/>
        </mxCell>
        <mxCell id="6lCbFaMOvaHUvnWq1Ras-31" value="" style="endArrow=classic;html=1;exitX=1;exitY=0.5;exitDx=0;exitDy=0;entryX=0;entryY=0.5;entryDx=0;entryDy=0;" parent="1" source="6lCbFaMOvaHUvnWq1Ras-30" target="6lCbFaMOvaHUvnWq1Ras-32" edge="1">
          <mxGeometry width="50" height="50" relative="1" as="geometry">
            <mxPoint x="200" y="570" as="sourcePoint"/>
            <mxPoint x="320" y="540" as="targetPoint"/>
          </mxGeometry>
        </mxCell>
        <mxCell id="6lCbFaMOvaHUvnWq1Ras-32" value="创建订单" style="rounded=0;whiteSpace=wrap;html=1;" parent="1" vertex="1">
          <mxGeometry x="320" y="560" width="120" height="42" as="geometry"/>
        </mxCell>
        <mxCell id="6lCbFaMOvaHUvnWq1Ras-33" value="订单详情" style="rounded=0;whiteSpace=wrap;html=1;" parent="1" vertex="1">
          <mxGeometry x="120" y="604" width="120" height="42" as="geometry"/>
        </mxCell>
        <mxCell id="6lCbFaMOvaHUvnWq1Ras-34" value="" style="endArrow=classic;html=1;entryX=1;entryY=0.5;entryDx=0;entryDy=0;exitX=0;exitY=0.5;exitDx=0;exitDy=0;" parent="1" source="6lCbFaMOvaHUvnWq1Ras-32" target="6lCbFaMOvaHUvnWq1Ras-33" edge="1">
          <mxGeometry width="50" height="50" relative="1" as="geometry">
            <mxPoint x="290" y="730" as="sourcePoint"/>
            <mxPoint x="340" y="680" as="targetPoint"/>
          </mxGeometry>
        </mxCell>
        <mxCell id="6lCbFaMOvaHUvnWq1Ras-35" value="支付" style="rounded=0;whiteSpace=wrap;html=1;" parent="1" vertex="1">
          <mxGeometry x="120" y="680" width="120" height="42" as="geometry"/>
        </mxCell>
        <mxCell id="6lCbFaMOvaHUvnWq1Ras-36" value="" style="endArrow=classic;html=1;entryX=0.5;entryY=0;entryDx=0;entryDy=0;" parent="1" target="6lCbFaMOvaHUvnWq1Ras-35" edge="1">
          <mxGeometry width="50" height="50" relative="1" as="geometry">
            <mxPoint x="180" y="650" as="sourcePoint"/>
            <mxPoint x="360" y="670" as="targetPoint"/>
          </mxGeometry>
        </mxCell>
        <mxCell id="6lCbFaMOvaHUvnWq1Ras-37" value="预下单" style="rounded=0;whiteSpace=wrap;html=1;" parent="1" vertex="1">
          <mxGeometry x="520" y="560" width="120" height="42" as="geometry"/>
        </mxCell>
        <mxCell id="6lCbFaMOvaHUvnWq1Ras-38" value="" style="endArrow=classic;html=1;entryX=0;entryY=0.5;entryDx=0;entryDy=0;exitX=1;exitY=0.5;exitDx=0;exitDy=0;" parent="1" source="6lCbFaMOvaHUvnWq1Ras-32" target="6lCbFaMOvaHUvnWq1Ras-37" edge="1">
          <mxGeometry width="50" height="50" relative="1" as="geometry">
            <mxPoint x="440" y="620" as="sourcePoint"/>
            <mxPoint x="490" y="570" as="targetPoint"/>
          </mxGeometry>
        </mxCell>
        <mxCell id="6lCbFaMOvaHUvnWq1Ras-40" value="前端应用/业务系统" style="rounded=0;whiteSpace=wrap;html=1;" parent="1" vertex="1">
          <mxGeometry x="124" y="760" width="120" height="42" as="geometry"/>
        </mxCell>
        <mxCell id="6lCbFaMOvaHUvnWq1Ras-41" value="云鹊医支付中心" style="rounded=0;whiteSpace=wrap;html=1;" parent="1" vertex="1">
          <mxGeometry x="401.5" y="760" width="120" height="42" as="geometry"/>
        </mxCell>
        <mxCell id="6lCbFaMOvaHUvnWq1Ras-42" value="第三方支付平台" style="rounded=0;whiteSpace=wrap;html=1;" parent="1" vertex="1">
          <mxGeometry x="683.5" y="760" width="120" height="42" as="geometry"/>
        </mxCell>
        <mxCell id="6lCbFaMOvaHUvnWq1Ras-43" value="" style="endArrow=none;dashed=1;html=1;exitX=0.5;exitY=1;exitDx=0;exitDy=0;" parent="1" source="6lCbFaMOvaHUvnWq1Ras-40" edge="1">
          <mxGeometry width="50" height="50" relative="1" as="geometry">
            <mxPoint x="184" y="850" as="sourcePoint"/>
            <mxPoint x="184.5" y="1410" as="targetPoint"/>
          </mxGeometry>
        </mxCell>
        <mxCell id="6lCbFaMOvaHUvnWq1Ras-44" value="" style="endArrow=none;dashed=1;html=1;exitX=0.5;exitY=1;exitDx=0;exitDy=0;" parent="1" edge="1">
          <mxGeometry width="50" height="50" relative="1" as="geometry">
            <mxPoint x="463" y="802" as="sourcePoint"/>
            <mxPoint x="463.5" y="1400" as="targetPoint"/>
          </mxGeometry>
        </mxCell>
        <mxCell id="6lCbFaMOvaHUvnWq1Ras-45" value="" style="endArrow=none;dashed=1;html=1;exitX=0.5;exitY=1;exitDx=0;exitDy=0;" parent="1" edge="1">
          <mxGeometry width="50" height="50" relative="1" as="geometry">
            <mxPoint x="742.5" y="810" as="sourcePoint"/>
            <mxPoint x="742.5" y="1410" as="targetPoint"/>
          </mxGeometry>
        </mxCell>
        <mxCell id="6lCbFaMOvaHUvnWq1Ras-47" value="1、前端用户下单" style="text;html=1;strokeColor=#d79b00;fillColor=#ffe6cc;align=center;verticalAlign=middle;whiteSpace=wrap;rounded=0;" parent="1" vertex="1">
          <mxGeometry x="184" y="827" width="110" height="20" as="geometry"/>
        </mxCell>
        <mxCell id="6lCbFaMOvaHUvnWq1Ras-48" value="" style="endArrow=classic;html=1;fillColor=#ffe6cc;strokeColor=#d79b00;" parent="1" edge="1">
          <mxGeometry width="50" height="50" relative="1" as="geometry">
            <mxPoint x="281.5" y="846.5" as="sourcePoint"/>
            <mxPoint x="461.5" y="846.5" as="targetPoint"/>
          </mxGeometry>
        </mxCell>
        <mxCell id="6lCbFaMOvaHUvnWq1Ras-49" value="" style="endArrow=classic;html=1;fillColor=#ffe6cc;strokeColor=#d79b00;" parent="1" edge="1">
          <mxGeometry width="50" height="50" relative="1" as="geometry">
            <mxPoint x="370.5" y="889.5" as="sourcePoint"/>
            <mxPoint x="190.5" y="889.5" as="targetPoint"/>
          </mxGeometry>
        </mxCell>
        <mxCell id="6lCbFaMOvaHUvnWq1Ras-50" value="2、后端生成订单并返回订单id" style="text;html=1;strokeColor=#d79b00;fillColor=#ffe6cc;align=center;verticalAlign=middle;whiteSpace=wrap;rounded=0;" parent="1" vertex="1">
          <mxGeometry x="296.5" y="870" width="165" height="20" as="geometry"/>
        </mxCell>
        <mxCell id="6lCbFaMOvaHUvnWq1Ras-51" value="" style="endArrow=classic;html=1;fillColor=#fff2cc;strokeColor=#d6b656;" parent="1" edge="1">
          <mxGeometry width="50" height="50" relative="1" as="geometry">
            <mxPoint x="194" y="967" as="sourcePoint"/>
            <mxPoint x="461.5" y="967" as="targetPoint"/>
          </mxGeometry>
        </mxCell>
        <mxCell id="6lCbFaMOvaHUvnWq1Ras-53" value="3、前端用户预支付" style="text;html=1;strokeColor=#d6b656;fillColor=#fff2cc;align=center;verticalAlign=middle;whiteSpace=wrap;rounded=0;" parent="1" vertex="1">
          <mxGeometry x="188" y="948" width="110" height="20" as="geometry"/>
        </mxCell>
        <mxCell id="6lCbFaMOvaHUvnWq1Ras-54" value="" style="endArrow=classic;html=1;fillColor=#fff2cc;strokeColor=#d6b656;" parent="1" edge="1">
          <mxGeometry width="50" height="50" relative="1" as="geometry">
            <mxPoint x="466.5" y="1002" as="sourcePoint"/>
            <mxPoint x="741.5" y="1002" as="targetPoint"/>
          </mxGeometry>
        </mxCell>
        <mxCell id="6lCbFaMOvaHUvnWq1Ras-55" value="4、支付中心对请求进行处理" style="text;html=1;strokeColor=#d6b656;fillColor=#fff2cc;align=center;verticalAlign=middle;whiteSpace=wrap;rounded=0;" parent="1" vertex="1">
          <mxGeometry x="466.5" y="951" width="155" height="20" as="geometry"/>
        </mxCell>
        <mxCell id="6lCbFaMOvaHUvnWq1Ras-56" value="5、调用预支付接口" style="text;html=1;strokeColor=#d6b656;fillColor=#fff2cc;align=center;verticalAlign=middle;whiteSpace=wrap;rounded=0;" parent="1" vertex="1">
          <mxGeometry x="466.5" y="977" width="110" height="20" as="geometry"/>
        </mxCell>
        <mxCell id="6lCbFaMOvaHUvnWq1Ras-60" value="" style="endArrow=classic;html=1;fillColor=#fff2cc;strokeColor=#d6b656;" parent="1" edge="1">
          <mxGeometry width="50" height="50" relative="1" as="geometry">
            <mxPoint x="738.5" y="1052" as="sourcePoint"/>
            <mxPoint x="476.5" y="1052" as="targetPoint"/>
          </mxGeometry>
        </mxCell>
        <mxCell id="6lCbFaMOvaHUvnWq1Ras-61" value="6、预支付成功" style="text;html=1;strokeColor=#d6b656;fillColor=#fff2cc;align=center;verticalAlign=middle;whiteSpace=wrap;rounded=0;" parent="1" vertex="1">
          <mxGeometry x="630" y="1029" width="110" height="20" as="geometry"/>
        </mxCell>
        <mxCell id="6lCbFaMOvaHUvnWq1Ras-62" value="" style="endArrow=classic;html=1;fillColor=#fff2cc;strokeColor=#d6b656;" parent="1" edge="1">
          <mxGeometry width="50" height="50" relative="1" as="geometry">
            <mxPoint x="461.5" y="1085" as="sourcePoint"/>
            <mxPoint x="194" y="1085" as="targetPoint"/>
          </mxGeometry>
        </mxCell>
        <mxCell id="6lCbFaMOvaHUvnWq1Ras-63" value="7、返回prepay_id给前端" style="text;html=1;strokeColor=#d6b656;fillColor=#fff2cc;align=center;verticalAlign=middle;whiteSpace=wrap;rounded=0;" parent="1" vertex="1">
          <mxGeometry x="311.5" y="1062" width="150" height="20" as="geometry"/>
        </mxCell>
        <mxCell id="6lCbFaMOvaHUvnWq1Ras-66" value="8、前端调起微信进行付款" style="text;html=1;strokeColor=#9673a6;fillColor=#e1d5e7;align=center;verticalAlign=middle;whiteSpace=wrap;rounded=0;" parent="1" vertex="1">
          <mxGeometry x="183" y="1150" width="151" height="20" as="geometry"/>
        </mxCell>
        <mxCell id="6lCbFaMOvaHUvnWq1Ras-67" value="10、sdk返回支付信息" style="text;html=1;strokeColor=#9673a6;fillColor=#e1d5e7;align=center;verticalAlign=middle;whiteSpace=wrap;rounded=0;" parent="1" vertex="1">
          <mxGeometry x="184.5" y="1200" width="128" height="20" as="geometry"/>
        </mxCell>
        <mxCell id="6lCbFaMOvaHUvnWq1Ras-68" value="" style="endArrow=classic;html=1;fillColor=#e1d5e7;strokeColor=#9673a6;" parent="1" edge="1">
          <mxGeometry width="50" height="50" relative="1" as="geometry">
            <mxPoint x="742" y="1190" as="sourcePoint"/>
            <mxPoint x="469.5" y="1190" as="targetPoint"/>
          </mxGeometry>
        </mxCell>
        <mxCell id="6lCbFaMOvaHUvnWq1Ras-69" value="9、支付平台回调支付结果" style="text;html=1;strokeColor=#9673a6;fillColor=#e1d5e7;align=center;verticalAlign=middle;whiteSpace=wrap;rounded=0;" parent="1" vertex="1">
          <mxGeometry x="590.5" y="1167" width="149" height="20" as="geometry"/>
        </mxCell>
        <mxCell id="6lCbFaMOvaHUvnWq1Ras-71" value="" style="endArrow=classic;html=1;fillColor=#e1d5e7;strokeColor=#9673a6;" parent="1" edge="1">
          <mxGeometry width="50" height="50" relative="1" as="geometry">
            <mxPoint x="183" y="1269" as="sourcePoint"/>
            <mxPoint x="461.5" y="1269" as="targetPoint"/>
          </mxGeometry>
        </mxCell>
        <mxCell id="6lCbFaMOvaHUvnWq1Ras-74" value="支付log表" style="swimlane;fontStyle=0;childLayout=stackLayout;horizontal=1;startSize=22;fillColor=none;horizontalStack=0;resizeParent=1;resizeParentMax=0;resizeLast=0;collapsible=1;marginBottom=0;swimlaneFillColor=#ffffff;align=center;fontSize=14;" parent="1" vertex="1">
          <mxGeometry x="720" y="240" width="160" height="160" as="geometry"/>
        </mxCell>
        <mxCell id="6lCbFaMOvaHUvnWq1Ras-75" value="log id" style="text;strokeColor=none;fillColor=none;spacingLeft=4;spacingRight=4;overflow=hidden;rotatable=0;points=[[0,0.5],[1,0.5]];portConstraint=eastwest;fontSize=12;" parent="6lCbFaMOvaHUvnWq1Ras-74" vertex="1">
          <mxGeometry y="22" width="160" height="26" as="geometry"/>
        </mxCell>
        <mxCell id="6lCbFaMOvaHUvnWq1Ras-76" value="请求来源(不同业务线)" style="text;strokeColor=none;fillColor=none;spacingLeft=4;spacingRight=4;overflow=hidden;rotatable=0;points=[[0,0.5],[1,0.5]];portConstraint=eastwest;fontSize=12;" parent="6lCbFaMOvaHUvnWq1Ras-74" vertex="1">
          <mxGeometry y="48" width="160" height="26" as="geometry"/>
        </mxCell>
        <mxCell id="6lCbFaMOvaHUvnWq1Ras-77" value="业务类型(订单，支付，退款)&#xa;&#xa;用户id&#xa;&#xa;请求参数" style="text;strokeColor=none;fillColor=none;spacingLeft=4;spacingRight=4;overflow=hidden;rotatable=0;points=[[0,0.5],[1,0.5]];portConstraint=eastwest;fontSize=12;" parent="6lCbFaMOvaHUvnWq1Ras-74" vertex="1">
          <mxGeometry y="74" width="160" height="86" as="geometry"/>
        </mxCell>
        <mxCell id="6lCbFaMOvaHUvnWq1Ras-78" value="" style="rounded=0;whiteSpace=wrap;html=1;fontSize=16;fillColor=#f5f5f5;strokeColor=#666666;fontColor=#333333;" parent="1" vertex="1">
          <mxGeometry x="670" y="1440" width="350" height="50" as="geometry"/>
        </mxCell>
        <mxCell id="6lCbFaMOvaHUvnWq1Ras-79" value="" style="rounded=0;whiteSpace=wrap;html=1;fontSize=16;fillColor=#f5f5f5;strokeColor=#666666;fontColor=#333333;" parent="1" vertex="1">
          <mxGeometry x="260" y="1440" width="390" height="50" as="geometry"/>
        </mxCell>
        <mxCell id="6lCbFaMOvaHUvnWq1Ras-80" value="产品层" style="text;html=1;strokeColor=none;fillColor=none;align=center;verticalAlign=middle;whiteSpace=wrap;rounded=0;fontSize=16;" parent="1" vertex="1">
          <mxGeometry x="162.5" y="1467.5" width="61" height="20" as="geometry"/>
        </mxCell>
        <mxCell id="6lCbFaMOvaHUvnWq1Ras-81" value="核心层" style="text;html=1;strokeColor=none;fillColor=none;align=center;verticalAlign=middle;whiteSpace=wrap;rounded=0;fontSize=16;" parent="1" vertex="1">
          <mxGeometry x="162.5" y="1648" width="61" height="20" as="geometry"/>
        </mxCell>
        <mxCell id="6lCbFaMOvaHUvnWq1Ras-82" value="基础支撑层" style="text;html=1;strokeColor=none;fillColor=none;align=center;verticalAlign=middle;whiteSpace=wrap;rounded=0;fontSize=16;" parent="1" vertex="1">
          <mxGeometry x="153" y="1864" width="87" height="20" as="geometry"/>
        </mxCell>
        <mxCell id="6lCbFaMOvaHUvnWq1Ras-83" value="" style="endArrow=none;dashed=1;html=1;fontSize=16;" parent="1" edge="1">
          <mxGeometry width="50" height="50" relative="1" as="geometry">
            <mxPoint x="120" y="1513" as="sourcePoint"/>
            <mxPoint x="1030" y="1513" as="targetPoint"/>
          </mxGeometry>
        </mxCell>
        <mxCell id="6lCbFaMOvaHUvnWq1Ras-84" value="" style="endArrow=none;dashed=1;html=1;fontSize=16;" parent="1" edge="1">
          <mxGeometry width="50" height="50" relative="1" as="geometry">
            <mxPoint x="120" y="1813" as="sourcePoint"/>
            <mxPoint x="1020" y="1813" as="targetPoint"/>
          </mxGeometry>
        </mxCell>
        <mxCell id="6lCbFaMOvaHUvnWq1Ras-85" value="&lt;p class=&quot;MsoNormal&quot; style=&quot;font-size: 14px&quot;&gt;&lt;span style=&quot;color: rgb(51, 51, 51); letter-spacing: 0pt; background-image: initial; background-position: initial; background-size: initial; background-repeat: initial; background-attachment: initial; background-origin: initial; background-clip: initial;&quot;&gt;ocin&lt;font face=&quot;宋体&quot; style=&quot;font-size: 14px&quot;&gt;项目&lt;/font&gt;&lt;/span&gt;&lt;/p&gt;" style="rounded=0;whiteSpace=wrap;html=1;fontSize=16;fillColor=#dae8fc;strokeColor=#6c8ebf;labelBackgroundColor=none;" parent="1" vertex="1">
          <mxGeometry x="359" y="1445" width="81" height="40" as="geometry"/>
        </mxCell>
        <mxCell id="6lCbFaMOvaHUvnWq1Ras-86" value="&lt;p class=&quot;MsoNormal&quot; style=&quot;font-size: 14px&quot;&gt;&lt;font color=&quot;#333333&quot;&gt;&lt;span style=&quot;&quot;&gt;支付中心管理后台&lt;/span&gt;&lt;/font&gt;&lt;/p&gt;" style="rounded=0;whiteSpace=wrap;html=1;fontSize=16;fillColor=#dae8fc;strokeColor=#6c8ebf;labelBackgroundColor=none;" parent="1" vertex="1">
          <mxGeometry x="865.5" y="1445" width="145" height="40" as="geometry"/>
        </mxCell>
        <mxCell id="6lCbFaMOvaHUvnWq1Ras-87" value="&lt;p class=&quot;MsoNormal&quot; style=&quot;font-size: 14px&quot;&gt;&lt;font color=&quot;#333333&quot;&gt;&lt;span&gt;订单系统&lt;/span&gt;&lt;/font&gt;&lt;/p&gt;" style="rounded=0;whiteSpace=wrap;html=1;fontSize=16;fillColor=#dae8fc;strokeColor=#6c8ebf;labelBackgroundColor=none;" parent="1" vertex="1">
          <mxGeometry x="460" y="1445" width="80" height="40" as="geometry"/>
        </mxCell>
        <mxCell id="6lCbFaMOvaHUvnWq1Ras-88" value="&lt;font color=&quot;#333333&quot; style=&quot;font-size: 14px&quot;&gt;BI系统&lt;/font&gt;" style="rounded=0;whiteSpace=wrap;html=1;fontSize=16;fillColor=#dae8fc;strokeColor=#6c8ebf;labelBackgroundColor=none;" parent="1" vertex="1">
          <mxGeometry x="771" y="1445" width="80" height="40" as="geometry"/>
        </mxCell>
        <mxCell id="6lCbFaMOvaHUvnWq1Ras-89" value="支付产品" style="text;html=1;strokeColor=none;fillColor=none;align=center;verticalAlign=middle;whiteSpace=wrap;rounded=0;labelBackgroundColor=none;fontSize=16;fontStyle=1" parent="1" vertex="1">
          <mxGeometry x="270" y="1455" width="70" height="20" as="geometry"/>
        </mxCell>
        <mxCell id="6lCbFaMOvaHUvnWq1Ras-90" value="管理工具" style="text;html=1;strokeColor=none;fillColor=none;align=center;verticalAlign=middle;whiteSpace=wrap;rounded=0;labelBackgroundColor=none;fontSize=16;fontStyle=1" parent="1" vertex="1">
          <mxGeometry x="687" y="1455" width="70" height="20" as="geometry"/>
        </mxCell>
        <mxCell id="6lCbFaMOvaHUvnWq1Ras-91" value="" style="rounded=0;whiteSpace=wrap;html=1;fontSize=16;fillColor=#f8cecc;strokeColor=#b85450;" parent="1" vertex="1">
          <mxGeometry x="260" y="1535" width="650" height="50" as="geometry"/>
        </mxCell>
        <mxCell id="6lCbFaMOvaHUvnWq1Ras-92" value="支付网关" style="text;html=1;strokeColor=none;fillColor=none;align=center;verticalAlign=middle;whiteSpace=wrap;rounded=0;labelBackgroundColor=none;fontSize=16;fontStyle=1" parent="1" vertex="1">
          <mxGeometry x="275" y="1550" width="70" height="20" as="geometry"/>
        </mxCell>
        <mxCell id="6lCbFaMOvaHUvnWq1Ras-93" value="&lt;font color=&quot;#333333&quot;&gt;API开放&lt;/font&gt;" style="rounded=0;whiteSpace=wrap;html=1;fontSize=16;fillColor=#dae8fc;strokeColor=#6c8ebf;labelBackgroundColor=none;" parent="1" vertex="1">
          <mxGeometry x="380" y="1540" width="100" height="40" as="geometry"/>
        </mxCell>
        <mxCell id="6lCbFaMOvaHUvnWq1Ras-94" value="&lt;font color=&quot;#333333&quot;&gt;访问鉴权&lt;/font&gt;" style="rounded=0;whiteSpace=wrap;html=1;fontSize=16;fillColor=#dae8fc;strokeColor=#6c8ebf;labelBackgroundColor=none;" parent="1" vertex="1">
          <mxGeometry x="520" y="1540" width="90" height="40" as="geometry"/>
        </mxCell>
        <mxCell id="6lCbFaMOvaHUvnWq1Ras-95" value="&lt;font color=&quot;#333333&quot;&gt;数据加密&lt;/font&gt;" style="rounded=0;whiteSpace=wrap;html=1;fontSize=16;fillColor=#dae8fc;strokeColor=#6c8ebf;labelBackgroundColor=none;" parent="1" vertex="1">
          <mxGeometry x="650" y="1540" width="93" height="40" as="geometry"/>
        </mxCell>
        <mxCell id="6lCbFaMOvaHUvnWq1Ras-96" value="&lt;font color=&quot;#333333&quot;&gt;限流&lt;/font&gt;" style="rounded=0;whiteSpace=wrap;html=1;fontSize=16;fillColor=#dae8fc;strokeColor=#6c8ebf;labelBackgroundColor=none;" parent="1" vertex="1">
          <mxGeometry x="771" y="1540" width="111" height="40" as="geometry"/>
        </mxCell>
        <mxCell id="6lCbFaMOvaHUvnWq1Ras-97" value="" style="rounded=0;whiteSpace=wrap;html=1;fontSize=16;fillColor=#d5e8d4;strokeColor=#82b366;" parent="1" vertex="1">
          <mxGeometry x="259" y="1631" width="651" height="50" as="geometry"/>
        </mxCell>
        <mxCell id="6lCbFaMOvaHUvnWq1Ras-98" value="支付核心" style="text;html=1;strokeColor=none;fillColor=none;align=center;verticalAlign=middle;whiteSpace=wrap;rounded=0;labelBackgroundColor=none;fontSize=16;fontStyle=1" parent="1" vertex="1">
          <mxGeometry x="275" y="1646" width="70" height="20" as="geometry"/>
        </mxCell>
        <mxCell id="6lCbFaMOvaHUvnWq1Ras-99" value="&lt;font color=&quot;#333333&quot;&gt;支付&lt;/font&gt;" style="rounded=0;whiteSpace=wrap;html=1;fontSize=16;fillColor=#dae8fc;strokeColor=#6c8ebf;labelBackgroundColor=none;" parent="1" vertex="1">
          <mxGeometry x="380" y="1636" width="100" height="40" as="geometry"/>
        </mxCell>
        <mxCell id="6lCbFaMOvaHUvnWq1Ras-100" value="" style="rounded=0;whiteSpace=wrap;html=1;fontSize=16;fillColor=#d5e8d4;strokeColor=#82b366;" parent="1" vertex="1">
          <mxGeometry x="259" y="1727" width="421" height="50" as="geometry"/>
        </mxCell>
        <mxCell id="6lCbFaMOvaHUvnWq1Ras-101" value="支付路由" style="text;html=1;strokeColor=none;fillColor=none;align=center;verticalAlign=middle;whiteSpace=wrap;rounded=0;labelBackgroundColor=none;fontSize=16;fontStyle=1" parent="1" vertex="1">
          <mxGeometry x="275" y="1742" width="70" height="20" as="geometry"/>
        </mxCell>
        <mxCell id="6lCbFaMOvaHUvnWq1Ras-102" value="&lt;font color=&quot;#333333&quot;&gt;支付宝支付&lt;/font&gt;" style="rounded=0;whiteSpace=wrap;html=1;fontSize=16;fillColor=#dae8fc;strokeColor=#6c8ebf;labelBackgroundColor=none;" parent="1" vertex="1">
          <mxGeometry x="390" y="1732" width="100" height="40" as="geometry"/>
        </mxCell>
        <mxCell id="6lCbFaMOvaHUvnWq1Ras-103" value="&lt;font color=&quot;#333333&quot;&gt;微信支付&lt;/font&gt;" style="rounded=0;whiteSpace=wrap;html=1;fontSize=16;fillColor=#dae8fc;strokeColor=#6c8ebf;labelBackgroundColor=none;" parent="1" vertex="1">
          <mxGeometry x="536" y="1732" width="108" height="40" as="geometry"/>
        </mxCell>
        <mxCell id="6lCbFaMOvaHUvnWq1Ras-105" value="" style="rounded=0;whiteSpace=wrap;html=1;fontSize=16;fillColor=#e3c800;strokeColor=#B09500;fontColor=#ffffff;" parent="1" vertex="1">
          <mxGeometry x="260" y="1849" width="661" height="50" as="geometry"/>
        </mxCell>
        <mxCell id="6lCbFaMOvaHUvnWq1Ras-106" value="&lt;font color=&quot;#333333&quot;&gt;监控报警&lt;/font&gt;" style="rounded=0;whiteSpace=wrap;html=1;fontSize=16;fillColor=#dae8fc;strokeColor=#6c8ebf;labelBackgroundColor=none;" parent="1" vertex="1">
          <mxGeometry x="309" y="1854" width="100" height="40" as="geometry"/>
        </mxCell>
        <mxCell id="6lCbFaMOvaHUvnWq1Ras-107" value="&lt;font color=&quot;#333333&quot;&gt;数据安全&lt;/font&gt;" style="rounded=0;whiteSpace=wrap;html=1;fontSize=16;fillColor=#dae8fc;strokeColor=#6c8ebf;labelBackgroundColor=none;" parent="1" vertex="1">
          <mxGeometry x="450" y="1854" width="100" height="40" as="geometry"/>
        </mxCell>
        <mxCell id="6lCbFaMOvaHUvnWq1Ras-108" value="&lt;font color=&quot;#333333&quot;&gt;支付日志记录&lt;/font&gt;" style="rounded=0;whiteSpace=wrap;html=1;fontSize=16;fillColor=#dae8fc;strokeColor=#6c8ebf;labelBackgroundColor=none;" parent="1" vertex="1">
          <mxGeometry x="590" y="1854" width="100" height="40" as="geometry"/>
        </mxCell>
        <mxCell id="6lCbFaMOvaHUvnWq1Ras-109" value="&lt;font color=&quot;#333333&quot;&gt;数据补偿&lt;/font&gt;" style="rounded=0;whiteSpace=wrap;html=1;fontSize=16;fillColor=#dae8fc;strokeColor=#6c8ebf;labelBackgroundColor=none;" parent="1" vertex="1">
          <mxGeometry x="736" y="1854" width="100" height="40" as="geometry"/>
        </mxCell>
        <mxCell id="6lCbFaMOvaHUvnWq1Ras-110" value="&lt;font color=&quot;#333333&quot;&gt;退款&lt;/font&gt;" style="rounded=0;whiteSpace=wrap;html=1;fontSize=16;fillColor=#dae8fc;strokeColor=#6c8ebf;labelBackgroundColor=none;" parent="1" vertex="1">
          <mxGeometry x="518" y="1636" width="93" height="40" as="geometry"/>
        </mxCell>
        <mxCell id="6lCbFaMOvaHUvnWq1Ras-111" value="&lt;font color=&quot;#333333&quot;&gt;异步回调&lt;/font&gt;" style="rounded=0;whiteSpace=wrap;html=1;fontSize=16;fillColor=#dae8fc;strokeColor=#6c8ebf;labelBackgroundColor=none;" parent="1" vertex="1">
          <mxGeometry x="651" y="1636" width="89" height="40" as="geometry"/>
        </mxCell>
        <mxCell id="6lCbFaMOvaHUvnWq1Ras-112" value="&lt;font color=&quot;#333333&quot;&gt;查询&lt;/font&gt;" style="rounded=0;whiteSpace=wrap;html=1;fontSize=16;fillColor=#dae8fc;strokeColor=#6c8ebf;labelBackgroundColor=none;" parent="1" vertex="1">
          <mxGeometry x="780" y="1636" width="100" height="40" as="geometry"/>
        </mxCell>
        <mxCell id="6lCbFaMOvaHUvnWq1Ras-113" value="&lt;font color=&quot;#333333&quot; style=&quot;font-size: 14px&quot;&gt;支付项目&lt;/font&gt;" style="rounded=0;whiteSpace=wrap;html=1;fontSize=16;fillColor=#dae8fc;strokeColor=#6c8ebf;labelBackgroundColor=none;" parent="1" vertex="1">
          <mxGeometry x="555" y="1444.5" width="80" height="40" as="geometry"/>
        </mxCell>
        <mxCell id="6lCbFaMOvaHUvnWq1Ras-118" value="支付表" style="swimlane;fontStyle=0;childLayout=stackLayout;horizontal=1;startSize=22;fillColor=none;horizontalStack=0;resizeParent=1;resizeParentMax=0;resizeLast=0;collapsible=1;marginBottom=0;swimlaneFillColor=#ffffff;align=center;fontSize=14;" parent="1" vertex="1">
          <mxGeometry x="321.5" y="2000" width="120" height="160" as="geometry"/>
        </mxCell>
        <mxCell id="6lCbFaMOvaHUvnWq1Ras-119" value="id" style="text;strokeColor=none;fillColor=none;spacingLeft=4;spacingRight=4;overflow=hidden;rotatable=0;points=[[0,0.5],[1,0.5]];portConstraint=eastwest;fontSize=12;" parent="6lCbFaMOvaHUvnWq1Ras-118" vertex="1">
          <mxGeometry y="22" width="120" height="26" as="geometry"/>
        </mxCell>
        <mxCell id="6lCbFaMOvaHUvnWq1Ras-120" value="订单id" style="text;strokeColor=none;fillColor=none;spacingLeft=4;spacingRight=4;overflow=hidden;rotatable=0;points=[[0,0.5],[1,0.5]];portConstraint=eastwest;fontSize=12;" parent="6lCbFaMOvaHUvnWq1Ras-118" vertex="1">
          <mxGeometry y="48" width="120" height="26" as="geometry"/>
        </mxCell>
        <mxCell id="6lCbFaMOvaHUvnWq1Ras-121" value="第三方支付单号&#xa;&#xa;支付渠道&#xa;&#xa;支付金额" style="text;strokeColor=none;fillColor=none;spacingLeft=4;spacingRight=4;overflow=hidden;rotatable=0;points=[[0,0.5],[1,0.5]];portConstraint=eastwest;fontSize=12;" parent="6lCbFaMOvaHUvnWq1Ras-118" vertex="1">
          <mxGeometry y="74" width="120" height="86" as="geometry"/>
        </mxCell>
        <mxCell id="6lCbFaMOvaHUvnWq1Ras-123" value="微信支付详情表" style="swimlane;fontStyle=0;childLayout=stackLayout;horizontal=1;startSize=22;fillColor=none;horizontalStack=0;resizeParent=1;resizeParentMax=0;resizeLast=0;collapsible=1;marginBottom=0;swimlaneFillColor=#ffffff;align=center;fontSize=14;" parent="1" vertex="1">
          <mxGeometry x="120" y="2000" width="120" height="160" as="geometry"/>
        </mxCell>
        <mxCell id="6lCbFaMOvaHUvnWq1Ras-124" value="详情id" style="text;strokeColor=none;fillColor=none;spacingLeft=4;spacingRight=4;overflow=hidden;rotatable=0;points=[[0,0.5],[1,0.5]];portConstraint=eastwest;fontSize=12;" parent="6lCbFaMOvaHUvnWq1Ras-123" vertex="1">
          <mxGeometry y="22" width="120" height="26" as="geometry"/>
        </mxCell>
        <mxCell id="6lCbFaMOvaHUvnWq1Ras-126" value="支付id&#xa;&#xa;付款公众号&#xa;&#xa;用户标识 open_id" style="text;strokeColor=none;fillColor=none;spacingLeft=4;spacingRight=4;overflow=hidden;rotatable=0;points=[[0,0.5],[1,0.5]];portConstraint=eastwest;fontSize=12;" parent="6lCbFaMOvaHUvnWq1Ras-123" vertex="1">
          <mxGeometry y="48" width="120" height="112" as="geometry"/>
        </mxCell>
        <mxCell id="6lCbFaMOvaHUvnWq1Ras-127" value="支付宝支付详情表" style="swimlane;fontStyle=0;childLayout=stackLayout;horizontal=1;startSize=22;fillColor=none;horizontalStack=0;resizeParent=1;resizeParentMax=0;resizeLast=0;collapsible=1;marginBottom=0;swimlaneFillColor=#ffffff;align=center;fontSize=14;" parent="1" vertex="1">
          <mxGeometry x="519" y="2000" width="120" height="160" as="geometry"/>
        </mxCell>
        <mxCell id="6lCbFaMOvaHUvnWq1Ras-128" value="详情id&#xa;&#xa;支付id&#xa;&#xa;app_id 应用标识&#xa;" style="text;strokeColor=none;fillColor=none;spacingLeft=4;spacingRight=4;overflow=hidden;rotatable=0;points=[[0,0.5],[1,0.5]];portConstraint=eastwest;fontSize=12;" parent="6lCbFaMOvaHUvnWq1Ras-127" vertex="1">
          <mxGeometry y="22" width="120" height="138" as="geometry"/>
        </mxCell>
        <mxCell id="6lCbFaMOvaHUvnWq1Ras-139" value="" style="shape=flexArrow;endArrow=classic;html=1;fillColor=#0050ef;strokeColor=#001DBC;" parent="1" edge="1">
          <mxGeometry width="50" height="50" relative="1" as="geometry">
            <mxPoint x="634.5" y="1490" as="sourcePoint"/>
            <mxPoint x="634.5" y="1535" as="targetPoint"/>
          </mxGeometry>
        </mxCell>
        <mxCell id="6lCbFaMOvaHUvnWq1Ras-140" value="" style="shape=flexArrow;endArrow=classic;html=1;fillColor=#0050ef;strokeColor=#001DBC;" parent="1" edge="1">
          <mxGeometry width="50" height="50" relative="1" as="geometry">
            <mxPoint x="634.5" y="1585" as="sourcePoint"/>
            <mxPoint x="634.5" y="1630" as="targetPoint"/>
          </mxGeometry>
        </mxCell>
        <mxCell id="6lCbFaMOvaHUvnWq1Ras-141" value="" style="shape=flexArrow;endArrow=classic;html=1;fillColor=#0050ef;strokeColor=#001DBC;" parent="1" edge="1">
          <mxGeometry width="50" height="50" relative="1" as="geometry">
            <mxPoint x="634.5" y="1682" as="sourcePoint"/>
            <mxPoint x="634.5" y="1727" as="targetPoint"/>
          </mxGeometry>
        </mxCell>
        <mxCell id="SVQx4Maf5GCCDUwy8xi--4" value="11、从后端查询支付结果" style="text;html=1;strokeColor=#9673a6;fillColor=#e1d5e7;align=center;verticalAlign=middle;whiteSpace=wrap;rounded=0;" parent="1" vertex="1">
          <mxGeometry x="183" y="1245.5" width="163" height="20" as="geometry"/>
        </mxCell>
        <mxCell id="SVQx4Maf5GCCDUwy8xi--5" value="12、如果支付结果存在直接返回" style="text;html=1;strokeColor=#9673a6;fillColor=#e1d5e7;align=center;verticalAlign=middle;whiteSpace=wrap;rounded=0;" parent="1" vertex="1">
          <mxGeometry x="465.5" y="1270" width="185" height="20" as="geometry"/>
        </mxCell>
        <mxCell id="SVQx4Maf5GCCDUwy8xi--7" value="13、如果支付结果不存在，主动查询第三方支付平台" style="text;html=1;strokeColor=#9673a6;fillColor=#e1d5e7;align=center;verticalAlign=middle;whiteSpace=wrap;rounded=0;" parent="1" vertex="1">
          <mxGeometry x="463" y="1330" width="187" height="20" as="geometry"/>
        </mxCell>
        <mxCell id="SVQx4Maf5GCCDUwy8xi--8" value="" style="endArrow=classic;html=1;fillColor=#e1d5e7;strokeColor=#9673a6;" parent="1" edge="1">
          <mxGeometry width="50" height="50" relative="1" as="geometry">
            <mxPoint x="466" y="1354" as="sourcePoint"/>
            <mxPoint x="744.5" y="1354" as="targetPoint"/>
          </mxGeometry>
        </mxCell>
        <mxCell id="SVQx4Maf5GCCDUwy8xi--9" value="" style="endArrow=classic;html=1;fillColor=#e1d5e7;strokeColor=#9673a6;" parent="1" edge="1">
          <mxGeometry width="50" height="50" relative="1" as="geometry">
            <mxPoint x="461.5" y="1380" as="sourcePoint"/>
            <mxPoint x="189" y="1380" as="targetPoint"/>
          </mxGeometry>
        </mxCell>
        <mxCell id="SVQx4Maf5GCCDUwy8xi--10" value="14、返回支付结果给前端" style="text;html=1;strokeColor=#9673a6;fillColor=#e1d5e7;align=center;verticalAlign=middle;whiteSpace=wrap;rounded=0;" parent="1" vertex="1">
          <mxGeometry x="313.5" y="1357" width="144" height="20" as="geometry"/>
        </mxCell>
        <mxCell id="SVQx4Maf5GCCDUwy8xi--11" value="流程1" style="ellipse;whiteSpace=wrap;html=1;aspect=fixed;fillColor=#ffe6cc;strokeColor=#d79b00;" parent="1" vertex="1">
          <mxGeometry x="124" y="840" width="40" height="40" as="geometry"/>
        </mxCell>
        <mxCell id="SVQx4Maf5GCCDUwy8xi--12" value="流程2" style="ellipse;whiteSpace=wrap;html=1;aspect=fixed;fillColor=#fff2cc;strokeColor=#d6b656;" parent="1" vertex="1">
          <mxGeometry x="124" y="999" width="40" height="40" as="geometry"/>
        </mxCell>
        <mxCell id="SVQx4Maf5GCCDUwy8xi--13" value="流程3" style="ellipse;whiteSpace=wrap;html=1;aspect=fixed;fillColor=#e1d5e7;strokeColor=#9673a6;" parent="1" vertex="1">
          <mxGeometry x="120" y="1160" width="40" height="40" as="geometry"/>
        </mxCell>
        <mxCell id="WgVv_9n-KvLfAYpmwwS_-1" value="前端应用/业务系统" style="rounded=0;whiteSpace=wrap;html=1;" vertex="1" parent="1">
          <mxGeometry x="77.5" y="2370" width="120" height="42" as="geometry"/>
        </mxCell>
        <mxCell id="WgVv_9n-KvLfAYpmwwS_-2" value="云鹊医支付中心" style="rounded=0;whiteSpace=wrap;html=1;" vertex="1" parent="1">
          <mxGeometry x="355" y="2370" width="120" height="42" as="geometry"/>
        </mxCell>
        <mxCell id="WgVv_9n-KvLfAYpmwwS_-3" value="第三方支付平台" style="rounded=0;whiteSpace=wrap;html=1;" vertex="1" parent="1">
          <mxGeometry x="637" y="2370" width="120" height="42" as="geometry"/>
        </mxCell>
        <mxCell id="WgVv_9n-KvLfAYpmwwS_-4" value="" style="endArrow=none;dashed=1;html=1;exitX=0.5;exitY=1;exitDx=0;exitDy=0;" edge="1" parent="1" source="WgVv_9n-KvLfAYpmwwS_-1">
          <mxGeometry width="50" height="50" relative="1" as="geometry">
            <mxPoint x="137.5" y="2460" as="sourcePoint"/>
            <mxPoint x="138" y="2710" as="targetPoint"/>
          </mxGeometry>
        </mxCell>
        <mxCell id="WgVv_9n-KvLfAYpmwwS_-5" value="" style="endArrow=none;dashed=1;html=1;exitX=0.5;exitY=1;exitDx=0;exitDy=0;" edge="1" parent="1">
          <mxGeometry width="50" height="50" relative="1" as="geometry">
            <mxPoint x="418" y="2412" as="sourcePoint"/>
            <mxPoint x="419" y="2710" as="targetPoint"/>
          </mxGeometry>
        </mxCell>
        <mxCell id="WgVv_9n-KvLfAYpmwwS_-6" value="" style="endArrow=none;dashed=1;html=1;exitX=0.5;exitY=1;exitDx=0;exitDy=0;" edge="1" parent="1">
          <mxGeometry width="50" height="50" relative="1" as="geometry">
            <mxPoint x="696" y="2420" as="sourcePoint"/>
            <mxPoint x="696" y="2720" as="targetPoint"/>
          </mxGeometry>
        </mxCell>
        <mxCell id="WgVv_9n-KvLfAYpmwwS_-7" value="1、前端发起退款申请" style="text;html=1;strokeColor=#d79b00;fillColor=#ffe6cc;align=center;verticalAlign=middle;whiteSpace=wrap;rounded=0;" vertex="1" parent="1">
          <mxGeometry x="138" y="2437" width="123" height="20" as="geometry"/>
        </mxCell>
        <mxCell id="WgVv_9n-KvLfAYpmwwS_-8" value="" style="endArrow=classic;html=1;fillColor=#ffe6cc;strokeColor=#d79b00;" edge="1" parent="1">
          <mxGeometry width="50" height="50" relative="1" as="geometry">
            <mxPoint x="235" y="2456.5" as="sourcePoint"/>
            <mxPoint x="415" y="2456.5" as="targetPoint"/>
          </mxGeometry>
        </mxCell>
        <mxCell id="WgVv_9n-KvLfAYpmwwS_-10" value="2、财务系统查询退款申请" style="text;html=1;strokeColor=#d79b00;fillColor=#ffe6cc;align=center;verticalAlign=middle;whiteSpace=wrap;rounded=0;" vertex="1" parent="1">
          <mxGeometry x="420" y="2457" width="165" height="20" as="geometry"/>
        </mxCell>
        <mxCell id="WgVv_9n-KvLfAYpmwwS_-34" value="3、财务同意退款，调用退款接口" style="text;html=1;strokeColor=#d79b00;fillColor=#ffe6cc;align=center;verticalAlign=middle;whiteSpace=wrap;rounded=0;" vertex="1" parent="1">
          <mxGeometry x="419" y="2520" width="181" height="20" as="geometry"/>
        </mxCell>
        <mxCell id="WgVv_9n-KvLfAYpmwwS_-35" value="" style="endArrow=classic;html=1;fillColor=#ffe6cc;strokeColor=#d79b00;" edge="1" parent="1">
          <mxGeometry width="50" height="50" relative="1" as="geometry">
            <mxPoint x="420" y="2539" as="sourcePoint"/>
            <mxPoint x="690" y="2539" as="targetPoint"/>
          </mxGeometry>
        </mxCell>
        <mxCell id="WgVv_9n-KvLfAYpmwwS_-36" value="" style="endArrow=classic;html=1;fillColor=#ffe6cc;strokeColor=#d79b00;" edge="1" parent="1">
          <mxGeometry width="50" height="50" relative="1" as="geometry">
            <mxPoint x="700" y="2581" as="sourcePoint"/>
            <mxPoint x="420" y="2581" as="targetPoint"/>
          </mxGeometry>
        </mxCell>
        <mxCell id="WgVv_9n-KvLfAYpmwwS_-37" value="4、退款成功同步返回退款结果" style="text;html=1;strokeColor=#d79b00;fillColor=#ffe6cc;align=center;verticalAlign=middle;whiteSpace=wrap;rounded=0;" vertex="1" parent="1">
          <mxGeometry x="514.5" y="2560" width="181" height="20" as="geometry"/>
        </mxCell>
        <mxCell id="WgVv_9n-KvLfAYpmwwS_-39" value="5、前端查询退款状态" style="text;html=1;strokeColor=#d79b00;fillColor=#ffe6cc;align=center;verticalAlign=middle;whiteSpace=wrap;rounded=0;" vertex="1" parent="1">
          <mxGeometry x="136.5" y="2580" width="123" height="20" as="geometry"/>
        </mxCell>
        <mxCell id="WgVv_9n-KvLfAYpmwwS_-40" value="" style="endArrow=classic;html=1;fillColor=#ffe6cc;strokeColor=#d79b00;" edge="1" parent="1">
          <mxGeometry width="50" height="50" relative="1" as="geometry">
            <mxPoint x="233.5" y="2599.5" as="sourcePoint"/>
            <mxPoint x="413.5" y="2599.5" as="targetPoint"/>
          </mxGeometry>
        </mxCell>
        <mxCell id="WgVv_9n-KvLfAYpmwwS_-41" value="5操作和2、3、4、6之间不具有先后顺序" style="text;html=1;align=center;verticalAlign=middle;whiteSpace=wrap;rounded=0;fontColor=#FF6666;" vertex="1" parent="1">
          <mxGeometry x="133" y="2608" width="227" height="20" as="geometry"/>
        </mxCell>
        <mxCell id="WgVv_9n-KvLfAYpmwwS_-42" value="6、如未收到退款状态，定时主动查询" style="text;html=1;strokeColor=#d79b00;fillColor=#ffe6cc;align=center;verticalAlign=middle;whiteSpace=wrap;rounded=0;" vertex="1" parent="1">
          <mxGeometry x="418" y="2612" width="123" height="32" as="geometry"/>
        </mxCell>
        <mxCell id="WgVv_9n-KvLfAYpmwwS_-44" value="" style="endArrow=classic;html=1;fillColor=#ffe6cc;strokeColor=#d79b00;" edge="1" parent="1">
          <mxGeometry width="50" height="50" relative="1" as="geometry">
            <mxPoint x="515.5" y="2644" as="sourcePoint"/>
            <mxPoint x="695.5" y="2644" as="targetPoint"/>
          </mxGeometry>
        </mxCell>
        <mxCell id="WgVv_9n-KvLfAYpmwwS_-45" value="下单" style="rounded=0;whiteSpace=wrap;html=1;fontSize=13;" vertex="1" parent="1">
          <mxGeometry x="199" y="2880" width="80" height="40" as="geometry"/>
        </mxCell>
        <mxCell id="WgVv_9n-KvLfAYpmwwS_-46" value="购买流程状态机" style="text;html=1;strokeColor=none;fillColor=none;align=center;verticalAlign=middle;whiteSpace=wrap;rounded=0;dashed=1;fontSize=16;fontStyle=0" vertex="1" parent="1">
          <mxGeometry x="79" y="2760" width="120" height="20" as="geometry"/>
        </mxCell>
        <mxCell id="WgVv_9n-KvLfAYpmwwS_-47" value="订单待支付" style="rounded=0;whiteSpace=wrap;html=1;fontSize=13;" vertex="1" parent="1">
          <mxGeometry x="359" y="2880" width="80" height="40" as="geometry"/>
        </mxCell>
        <mxCell id="WgVv_9n-KvLfAYpmwwS_-48" value="订单已支付" style="rounded=0;whiteSpace=wrap;html=1;fontSize=13;" vertex="1" parent="1">
          <mxGeometry x="519" y="2880" width="80" height="40" as="geometry"/>
        </mxCell>
        <mxCell id="WgVv_9n-KvLfAYpmwwS_-49" value="订单已取消" style="rounded=0;whiteSpace=wrap;html=1;fontSize=13;" vertex="1" parent="1">
          <mxGeometry x="519" y="2960" width="80" height="40" as="geometry"/>
        </mxCell>
        <mxCell id="WgVv_9n-KvLfAYpmwwS_-50" value="退款中" style="rounded=0;whiteSpace=wrap;html=1;fontSize=13;" vertex="1" parent="1">
          <mxGeometry x="679" y="2880" width="80" height="40" as="geometry"/>
        </mxCell>
        <mxCell id="WgVv_9n-KvLfAYpmwwS_-51" value="已退款" style="rounded=0;whiteSpace=wrap;html=1;fontSize=13;" vertex="1" parent="1">
          <mxGeometry x="839" y="2880" width="80" height="40" as="geometry"/>
        </mxCell>
        <mxCell id="WgVv_9n-KvLfAYpmwwS_-52" value="" style="endArrow=classic;html=1;fontSize=13;entryX=0;entryY=0.5;entryDx=0;entryDy=0;exitX=1;exitY=0.5;exitDx=0;exitDy=0;" edge="1" parent="1" source="WgVv_9n-KvLfAYpmwwS_-45" target="WgVv_9n-KvLfAYpmwwS_-47">
          <mxGeometry width="50" height="50" relative="1" as="geometry">
            <mxPoint x="279" y="2930" as="sourcePoint"/>
            <mxPoint x="329" y="2880" as="targetPoint"/>
          </mxGeometry>
        </mxCell>
        <mxCell id="WgVv_9n-KvLfAYpmwwS_-53" value="" style="endArrow=classic;html=1;fontSize=13;entryX=0;entryY=0.5;entryDx=0;entryDy=0;exitX=1;exitY=0.5;exitDx=0;exitDy=0;" edge="1" parent="1" target="WgVv_9n-KvLfAYpmwwS_-48">
          <mxGeometry width="50" height="50" relative="1" as="geometry">
            <mxPoint x="439" y="2899.5" as="sourcePoint"/>
            <mxPoint x="519" y="2899.5" as="targetPoint"/>
          </mxGeometry>
        </mxCell>
        <mxCell id="WgVv_9n-KvLfAYpmwwS_-54" value="" style="endArrow=classic;html=1;fontSize=13;entryX=0;entryY=0.5;entryDx=0;entryDy=0;" edge="1" parent="1" target="WgVv_9n-KvLfAYpmwwS_-49">
          <mxGeometry width="50" height="50" relative="1" as="geometry">
            <mxPoint x="439" y="2900" as="sourcePoint"/>
            <mxPoint x="519" y="2867" as="targetPoint"/>
          </mxGeometry>
        </mxCell>
        <mxCell id="WgVv_9n-KvLfAYpmwwS_-55" value="" style="endArrow=classic;html=1;fontSize=13;entryX=0;entryY=0.5;entryDx=0;entryDy=0;exitX=1;exitY=0.5;exitDx=0;exitDy=0;" edge="1" parent="1" source="WgVv_9n-KvLfAYpmwwS_-48" target="WgVv_9n-KvLfAYpmwwS_-50">
          <mxGeometry width="50" height="50" relative="1" as="geometry">
            <mxPoint x="619" y="2930" as="sourcePoint"/>
            <mxPoint x="669" y="2880" as="targetPoint"/>
          </mxGeometry>
        </mxCell>
        <mxCell id="WgVv_9n-KvLfAYpmwwS_-56" value="" style="endArrow=classic;html=1;fontSize=13;entryX=0;entryY=0.5;entryDx=0;entryDy=0;exitX=1;exitY=0.5;exitDx=0;exitDy=0;" edge="1" parent="1">
          <mxGeometry width="50" height="50" relative="1" as="geometry">
            <mxPoint x="759" y="2899" as="sourcePoint"/>
            <mxPoint x="839" y="2899" as="targetPoint"/>
          </mxGeometry>
        </mxCell>
        <mxCell id="WgVv_9n-KvLfAYpmwwS_-57" value="订单完成" style="rounded=0;whiteSpace=wrap;html=1;fontSize=13;" vertex="1" parent="1">
          <mxGeometry x="679" y="2960" width="80" height="40" as="geometry"/>
        </mxCell>
        <mxCell id="WgVv_9n-KvLfAYpmwwS_-58" value="" style="endArrow=classic;html=1;fontSize=13;entryX=0;entryY=0.5;entryDx=0;entryDy=0;exitX=1;exitY=0.5;exitDx=0;exitDy=0;" edge="1" parent="1" source="WgVv_9n-KvLfAYpmwwS_-48" target="WgVv_9n-KvLfAYpmwwS_-57">
          <mxGeometry width="50" height="50" relative="1" as="geometry">
            <mxPoint x="599" y="2960" as="sourcePoint"/>
            <mxPoint x="649" y="2910" as="targetPoint"/>
          </mxGeometry>
        </mxCell>
        <mxCell id="WgVv_9n-KvLfAYpmwwS_-59" value="前端发起&lt;br&gt;退款申请" style="text;html=1;strokeColor=none;fillColor=none;align=center;verticalAlign=middle;whiteSpace=wrap;rounded=0;fontSize=13;" vertex="1" parent="1">
          <mxGeometry x="603.5" y="2832" width="80" height="20" as="geometry"/>
        </mxCell>
        <mxCell id="WgVv_9n-KvLfAYpmwwS_-60" value="" style="endArrow=classic;html=1;fontSize=13;strokeColor=#FF0000;dashed=1;" edge="1" parent="1">
          <mxGeometry width="50" height="50" relative="1" as="geometry">
            <mxPoint x="640.5" y="2860" as="sourcePoint"/>
            <mxPoint x="640.5" y="2900" as="targetPoint"/>
          </mxGeometry>
        </mxCell>
        <mxCell id="WgVv_9n-KvLfAYpmwwS_-61" value="前端发起&lt;br&gt;购买申请" style="text;html=1;strokeColor=none;fillColor=none;align=center;verticalAlign=middle;whiteSpace=wrap;rounded=0;fontSize=13;" vertex="1" parent="1">
          <mxGeometry x="74" y="2890" width="80" height="20" as="geometry"/>
        </mxCell>
        <mxCell id="WgVv_9n-KvLfAYpmwwS_-62" value="" style="endArrow=classic;html=1;fontSize=13;entryX=0;entryY=0.5;entryDx=0;entryDy=0;dashed=1;strokeColor=#FF0000;" edge="1" parent="1">
          <mxGeometry width="50" height="50" relative="1" as="geometry">
            <mxPoint x="138" y="2900" as="sourcePoint"/>
            <mxPoint x="198" y="2900" as="targetPoint"/>
          </mxGeometry>
        </mxCell>
        <mxCell id="WgVv_9n-KvLfAYpmwwS_-63" value="已完成" style="rounded=0;whiteSpace=wrap;html=1;fontSize=13;" vertex="1" parent="1">
          <mxGeometry x="999" y="2880" width="80" height="40" as="geometry"/>
        </mxCell>
        <mxCell id="WgVv_9n-KvLfAYpmwwS_-64" value="" style="endArrow=classic;html=1;fontSize=13;entryX=0;entryY=0.5;entryDx=0;entryDy=0;exitX=1;exitY=0.5;exitDx=0;exitDy=0;" edge="1" parent="1">
          <mxGeometry width="50" height="50" relative="1" as="geometry">
            <mxPoint x="919" y="2899.5" as="sourcePoint"/>
            <mxPoint x="999" y="2899.5" as="targetPoint"/>
          </mxGeometry>
        </mxCell>
        <mxCell id="WgVv_9n-KvLfAYpmwwS_-66" value="已超时" style="rounded=0;whiteSpace=wrap;html=1;fontSize=13;" vertex="1" parent="1">
          <mxGeometry x="520" y="3040" width="80" height="40" as="geometry"/>
        </mxCell>
        <mxCell id="WgVv_9n-KvLfAYpmwwS_-67" value="" style="endArrow=classic;html=1;fontSize=13;entryX=0;entryY=0.5;entryDx=0;entryDy=0;exitX=1;exitY=0.5;exitDx=0;exitDy=0;" edge="1" parent="1" source="WgVv_9n-KvLfAYpmwwS_-47" target="WgVv_9n-KvLfAYpmwwS_-66">
          <mxGeometry width="50" height="50" relative="1" as="geometry">
            <mxPoint x="340" y="3090" as="sourcePoint"/>
            <mxPoint x="420" y="3090" as="targetPoint"/>
          </mxGeometry>
        </mxCell>
        <mxCell id="WgVv_9n-KvLfAYpmwwS_-68" value="支付失败" style="rounded=0;whiteSpace=wrap;html=1;fontSize=13;" vertex="1" parent="1">
          <mxGeometry x="518" y="2800" width="80" height="40" as="geometry"/>
        </mxCell>
        <mxCell id="WgVv_9n-KvLfAYpmwwS_-69" value="" style="endArrow=classic;html=1;fontSize=13;entryX=0;entryY=0.5;entryDx=0;entryDy=0;" edge="1" parent="1" target="WgVv_9n-KvLfAYpmwwS_-68">
          <mxGeometry width="50" height="50" relative="1" as="geometry">
            <mxPoint x="440" y="2900" as="sourcePoint"/>
            <mxPoint x="442" y="3090" as="targetPoint"/>
          </mxGeometry>
        </mxCell>
        <mxCell id="WgVv_9n-KvLfAYpmwwS_-72" value="用户通过微信支付付款流程" style="text;html=1;strokeColor=none;fillColor=none;align=center;verticalAlign=middle;whiteSpace=wrap;rounded=0;dashed=1;fontSize=16;fontStyle=0" vertex="1" parent="1">
          <mxGeometry x="79" y="3120" width="205" height="20" as="geometry"/>
        </mxCell>
        <mxCell id="WgVv_9n-KvLfAYpmwwS_-73" value="用户下单" style="rounded=0;whiteSpace=wrap;html=1;fontSize=13;" vertex="1" parent="1">
          <mxGeometry x="84" y="3190" width="80" height="40" as="geometry"/>
        </mxCell>
        <mxCell id="WgVv_9n-KvLfAYpmwwS_-74" value="云鹊医&lt;br&gt;支付中心" style="rounded=0;whiteSpace=wrap;html=1;fontSize=13;" vertex="1" parent="1">
          <mxGeometry x="244" y="3310" width="80" height="40" as="geometry"/>
        </mxCell>
        <mxCell id="WgVv_9n-KvLfAYpmwwS_-75" value="第三方微信支付" style="rounded=0;whiteSpace=wrap;html=1;fontSize=13;" vertex="1" parent="1">
          <mxGeometry x="404" y="3190" width="80" height="40" as="geometry"/>
        </mxCell>
        <mxCell id="WgVv_9n-KvLfAYpmwwS_-76" value="用户" style="rounded=0;whiteSpace=wrap;html=1;fontSize=13;" vertex="1" parent="1">
          <mxGeometry x="84" y="3190" width="80" height="40" as="geometry"/>
        </mxCell>
        <mxCell id="WgVv_9n-KvLfAYpmwwS_-77" value="" style="endArrow=classic;html=1;strokeColor=#000000;fontSize=16;exitX=0.5;exitY=1;exitDx=0;exitDy=0;" edge="1" parent="1" source="WgVv_9n-KvLfAYpmwwS_-76">
          <mxGeometry width="50" height="50" relative="1" as="geometry">
            <mxPoint x="124" y="3280" as="sourcePoint"/>
            <mxPoint x="234" y="3330" as="targetPoint"/>
          </mxGeometry>
        </mxCell>
        <mxCell id="WgVv_9n-KvLfAYpmwwS_-78" value="" style="endArrow=classic;html=1;strokeColor=#000000;fontSize=16;entryX=0.5;entryY=1;entryDx=0;entryDy=0;" edge="1" parent="1">
          <mxGeometry width="50" height="50" relative="1" as="geometry">
            <mxPoint x="330" y="3332" as="sourcePoint"/>
            <mxPoint x="440" y="3232" as="targetPoint"/>
          </mxGeometry>
        </mxCell>
        <mxCell id="WgVv_9n-KvLfAYpmwwS_-79" value="" style="endArrow=classic;html=1;strokeColor=#000000;fontSize=16;entryX=0;entryY=0.5;entryDx=0;entryDy=0;" edge="1" parent="1">
          <mxGeometry width="50" height="50" relative="1" as="geometry">
            <mxPoint x="178" y="3217" as="sourcePoint"/>
            <mxPoint x="396" y="3217" as="targetPoint"/>
          </mxGeometry>
        </mxCell>
        <mxCell id="WgVv_9n-KvLfAYpmwwS_-80" value="" style="endArrow=classic;html=1;strokeColor=#000000;fontSize=16;exitX=0.605;exitY=1.06;exitDx=0;exitDy=0;exitPerimeter=0;" edge="1" parent="1">
          <mxGeometry width="50" height="50" relative="1" as="geometry">
            <mxPoint x="452.4000000000001" y="3237.4" as="sourcePoint"/>
            <mxPoint x="334" y="3345" as="targetPoint"/>
          </mxGeometry>
        </mxCell>
        <mxCell id="WgVv_9n-KvLfAYpmwwS_-81" value="" style="endArrow=classic;html=1;strokeColor=#000000;fontSize=16;" edge="1" parent="1">
          <mxGeometry width="50" height="50" relative="1" as="geometry">
            <mxPoint x="224" y="3338" as="sourcePoint"/>
            <mxPoint x="114" y="3238" as="targetPoint"/>
          </mxGeometry>
        </mxCell>
        <mxCell id="WgVv_9n-KvLfAYpmwwS_-82" value="" style="endArrow=classic;html=1;strokeColor=#000000;fontSize=16;" edge="1" parent="1">
          <mxGeometry width="50" height="50" relative="1" as="geometry">
            <mxPoint x="394" y="3202" as="sourcePoint"/>
            <mxPoint x="174" y="3202" as="targetPoint"/>
          </mxGeometry>
        </mxCell>
        <mxCell id="WgVv_9n-KvLfAYpmwwS_-83" value="&lt;font color=&quot;#ff0000&quot;&gt;1&lt;/font&gt;" style="ellipse;whiteSpace=wrap;html=1;aspect=fixed;fontSize=16;strokeColor=#FF0000;" vertex="1" parent="1">
          <mxGeometry x="180" y="3260" width="15" height="15" as="geometry"/>
        </mxCell>
        <mxCell id="WgVv_9n-KvLfAYpmwwS_-84" value="&lt;font color=&quot;#ff0000&quot;&gt;2&lt;/font&gt;" style="ellipse;whiteSpace=wrap;html=1;aspect=fixed;fontSize=16;strokeColor=#FF0000;" vertex="1" parent="1">
          <mxGeometry x="373.5" y="3260" width="15" height="15" as="geometry"/>
        </mxCell>
        <mxCell id="WgVv_9n-KvLfAYpmwwS_-85" value="&lt;font color=&quot;#ff0000&quot;&gt;3&lt;/font&gt;" style="ellipse;whiteSpace=wrap;html=1;aspect=fixed;fontSize=16;strokeColor=#FF0000;" vertex="1" parent="1">
          <mxGeometry x="284" y="3220.5" width="15" height="15" as="geometry"/>
        </mxCell>
        <mxCell id="WgVv_9n-KvLfAYpmwwS_-86" value="&lt;font color=&quot;#ff0000&quot;&gt;4&lt;/font&gt;" style="ellipse;whiteSpace=wrap;html=1;aspect=fixed;fontSize=16;strokeColor=#FF0000;" vertex="1" parent="1">
          <mxGeometry x="284" y="3182.5" width="15" height="15" as="geometry"/>
        </mxCell>
        <mxCell id="WgVv_9n-KvLfAYpmwwS_-87" value="&lt;font color=&quot;#ff0000&quot;&gt;5&lt;/font&gt;" style="ellipse;whiteSpace=wrap;html=1;aspect=fixed;fontSize=16;strokeColor=#FF0000;" vertex="1" parent="1">
          <mxGeometry x="397" y="3290" width="15" height="15" as="geometry"/>
        </mxCell>
        <mxCell id="WgVv_9n-KvLfAYpmwwS_-88" value="&lt;font color=&quot;#ff0000&quot;&gt;6&lt;/font&gt;" style="ellipse;whiteSpace=wrap;html=1;aspect=fixed;fontSize=16;strokeColor=#FF0000;" vertex="1" parent="1">
          <mxGeometry x="153" y="3290" width="15" height="15" as="geometry"/>
        </mxCell>
        <mxCell id="WgVv_9n-KvLfAYpmwwS_-89" value="" style="endArrow=classic;html=1;fontColor=#FF6666;entryX=0;entryY=0.5;entryDx=0;entryDy=0;exitX=1.043;exitY=0.136;exitDx=0;exitDy=0;exitPerimeter=0;dashed=1;" edge="1" parent="1">
          <mxGeometry width="50" height="50" relative="1" as="geometry">
            <mxPoint x="242.15999999999985" y="2063.232" as="sourcePoint"/>
            <mxPoint x="318.5" y="2035" as="targetPoint"/>
          </mxGeometry>
        </mxCell>
        <mxCell id="WgVv_9n-KvLfAYpmwwS_-90" value="" style="endArrow=classic;html=1;fontColor=#FF6666;entryX=1;entryY=0.5;entryDx=0;entryDy=0;exitX=-0.008;exitY=0.287;exitDx=0;exitDy=0;exitPerimeter=0;dashed=1;" edge="1" parent="1" source="6lCbFaMOvaHUvnWq1Ras-128" target="6lCbFaMOvaHUvnWq1Ras-119">
          <mxGeometry width="50" height="50" relative="1" as="geometry">
            <mxPoint x="492.65999999999985" y="2218.232" as="sourcePoint"/>
            <mxPoint x="569" y="2190" as="targetPoint"/>
          </mxGeometry>
        </mxCell>
        <mxCell id="WgVv_9n-KvLfAYpmwwS_-127" value="用户表" style="swimlane;fontStyle=0;childLayout=stackLayout;horizontal=1;startSize=22;fillColor=none;horizontalStack=0;resizeParent=1;resizeParentMax=0;resizeLast=0;collapsible=1;marginBottom=0;swimlaneFillColor=#ffffff;align=center;fontSize=14;" vertex="1" parent="1">
          <mxGeometry x="80" y="3440" width="120" height="160" as="geometry"/>
        </mxCell>
        <mxCell id="WgVv_9n-KvLfAYpmwwS_-128" value="用户id" style="text;strokeColor=none;fillColor=none;spacingLeft=4;spacingRight=4;overflow=hidden;rotatable=0;points=[[0,0.5],[1,0.5]];portConstraint=eastwest;fontSize=12;" vertex="1" parent="WgVv_9n-KvLfAYpmwwS_-127">
          <mxGeometry y="22" width="120" height="26" as="geometry"/>
        </mxCell>
        <mxCell id="WgVv_9n-KvLfAYpmwwS_-129" value="用户姓名" style="text;strokeColor=none;fillColor=none;spacingLeft=4;spacingRight=4;overflow=hidden;rotatable=0;points=[[0,0.5],[1,0.5]];portConstraint=eastwest;fontSize=12;" vertex="1" parent="WgVv_9n-KvLfAYpmwwS_-127">
          <mxGeometry y="48" width="120" height="26" as="geometry"/>
        </mxCell>
        <mxCell id="WgVv_9n-KvLfAYpmwwS_-130" value="用户手机号&#xa;&#xa;用户状态" style="text;strokeColor=none;fillColor=none;spacingLeft=4;spacingRight=4;overflow=hidden;rotatable=0;points=[[0,0.5],[1,0.5]];portConstraint=eastwest;fontSize=12;" vertex="1" parent="WgVv_9n-KvLfAYpmwwS_-127">
          <mxGeometry y="74" width="120" height="86" as="geometry"/>
        </mxCell>
        <mxCell id="WgVv_9n-KvLfAYpmwwS_-131" value="订单主表" style="swimlane;fontStyle=0;childLayout=stackLayout;horizontal=1;startSize=22;fillColor=none;horizontalStack=0;resizeParent=1;resizeParentMax=0;resizeLast=0;collapsible=1;marginBottom=0;swimlaneFillColor=#ffffff;align=center;fontSize=14;" vertex="1" parent="1">
          <mxGeometry x="280" y="3440" width="120" height="160" as="geometry"/>
        </mxCell>
        <mxCell id="WgVv_9n-KvLfAYpmwwS_-132" value="订单id" style="text;strokeColor=none;fillColor=none;spacingLeft=4;spacingRight=4;overflow=hidden;rotatable=0;points=[[0,0.5],[1,0.5]];portConstraint=eastwest;fontSize=12;" vertex="1" parent="WgVv_9n-KvLfAYpmwwS_-131">
          <mxGeometry y="22" width="120" height="26" as="geometry"/>
        </mxCell>
        <mxCell id="WgVv_9n-KvLfAYpmwwS_-133" value="用户id" style="text;strokeColor=none;fillColor=none;spacingLeft=4;spacingRight=4;overflow=hidden;rotatable=0;points=[[0,0.5],[1,0.5]];portConstraint=eastwest;fontSize=12;" vertex="1" parent="WgVv_9n-KvLfAYpmwwS_-131">
          <mxGeometry y="48" width="120" height="26" as="geometry"/>
        </mxCell>
        <mxCell id="WgVv_9n-KvLfAYpmwwS_-134" value="订单状态&#xa;&#xa;订单金额" style="text;strokeColor=none;fillColor=none;spacingLeft=4;spacingRight=4;overflow=hidden;rotatable=0;points=[[0,0.5],[1,0.5]];portConstraint=eastwest;fontSize=12;" vertex="1" parent="WgVv_9n-KvLfAYpmwwS_-131">
          <mxGeometry y="74" width="120" height="86" as="geometry"/>
        </mxCell>
        <mxCell id="WgVv_9n-KvLfAYpmwwS_-135" value="订单详情表" style="swimlane;fontStyle=0;childLayout=stackLayout;horizontal=1;startSize=22;fillColor=none;horizontalStack=0;resizeParent=1;resizeParentMax=0;resizeLast=0;collapsible=1;marginBottom=0;swimlaneFillColor=#ffffff;align=center;fontSize=14;" vertex="1" parent="1">
          <mxGeometry x="480" y="3440" width="120" height="160" as="geometry"/>
        </mxCell>
        <mxCell id="WgVv_9n-KvLfAYpmwwS_-136" value="订单详情id" style="text;strokeColor=none;fillColor=none;spacingLeft=4;spacingRight=4;overflow=hidden;rotatable=0;points=[[0,0.5],[1,0.5]];portConstraint=eastwest;fontSize=12;" vertex="1" parent="WgVv_9n-KvLfAYpmwwS_-135">
          <mxGeometry y="22" width="120" height="26" as="geometry"/>
        </mxCell>
        <mxCell id="WgVv_9n-KvLfAYpmwwS_-137" value="订单id&#xa;&#xa;商品名称&#xa;&#xa;商品描述&#xa;&#xa;商品数量/单价等" style="text;strokeColor=none;fillColor=none;spacingLeft=4;spacingRight=4;overflow=hidden;rotatable=0;points=[[0,0.5],[1,0.5]];portConstraint=eastwest;fontSize=12;" vertex="1" parent="WgVv_9n-KvLfAYpmwwS_-135">
          <mxGeometry y="48" width="120" height="112" as="geometry"/>
        </mxCell>
        <mxCell id="WgVv_9n-KvLfAYpmwwS_-138" value="" style="endArrow=classic;html=1;entryX=1;entryY=0.5;entryDx=0;entryDy=0;exitX=0;exitY=0.5;exitDx=0;exitDy=0;" edge="1" parent="1" source="WgVv_9n-KvLfAYpmwwS_-133" target="WgVv_9n-KvLfAYpmwwS_-128">
          <mxGeometry width="50" height="50" relative="1" as="geometry">
            <mxPoint x="290" y="3750" as="sourcePoint"/>
            <mxPoint x="340" y="3700" as="targetPoint"/>
          </mxGeometry>
        </mxCell>
        <mxCell id="WgVv_9n-KvLfAYpmwwS_-139" value="" style="endArrow=classic;html=1;exitX=0;exitY=0.107;exitDx=0;exitDy=0;exitPerimeter=0;entryX=1;entryY=0.5;entryDx=0;entryDy=0;" edge="1" parent="1" source="WgVv_9n-KvLfAYpmwwS_-137" target="WgVv_9n-KvLfAYpmwwS_-132">
          <mxGeometry width="50" height="50" relative="1" as="geometry">
            <mxPoint x="480" y="3730" as="sourcePoint"/>
            <mxPoint x="530" y="3680" as="targetPoint"/>
          </mxGeometry>
        </mxCell>
      </root>
    </mxGraphModel>
  </diagram>
</mxfile>
